# File created by Blade
# Date/Time:  Thu Jan 22 16:16:16 2015
#---------------------------------------------------------
:version 1.10
:name HOM
:units
  mass 1.0
  length 1.000000
  angle deg
:documentation
     Acclaim Skeleton File
:root
   axis xyz
   order TX TY TZ RX RY RZ
   position 0.000000 0.000000 0.000000
   orientation 0 0 0
:bonedata
   begin
      id 1
      name RightUpLeg_dum
      direction -1.000000 0.000000 0.000000
      length 3.766986
      axis 0.0 0.0 0.0 xyz
   end
   begin
      id 2
      name LeftUpLeg_dum
      direction 1.000000 0.000000 0.000000
      length 3.766986
      axis 0.0 0.0 0.0 xyz
   end
   begin
      id 3
      name Spine_dum
      direction 0.000000 1.000000 0.000000
      length 7.779697
      axis 0.0 0.0 0.0 xyz
   end
   begin
      id 4
      name RightUpLeg
      direction 0.000000 -1.000000 0.000000
      length 18.017682
      axis 0.0 0.0 0.0 xyz
      dof rx ry rz
   end
   begin
      id 5
      name RightLeg
      direction 0.000000 -1.000000 0.000000
      length 16.881075
      axis 0.0 0.0 0.0 xyz
      dof rx ry rz
   end
   begin
      id 6
      name RightFoot
      direction 0.000000 -0.258819 0.965926
      length 5.770812
      axis 15.0 0.0 0.0 xyz
      dof rx ry rz
   end
   begin
      id 7
      name RightToeBase
      direction 0.000000 0.000000 1.000000
      length 2.952750
      axis 0.0 0.0 0.0 xyz
      dof rx ry rz
   end
   begin
      id 8
      name LeftUpLeg
      direction 0.000000 -1.000000 0.000000
      length 18.017682
      axis 0.0 0.0 0.0 xyz
      dof rx ry rz
   end
   begin
      id 9
      name LeftLeg
      direction 0.000000 -1.000000 0.000000
      length 16.881075
      axis 0.0 0.0 0.0 xyz
      dof rx ry rz
   end
   begin
      id 10
      name LeftFoot
      direction 0.000000 -0.258819 0.965926
      length 5.770812
      axis 15.0 0.0 0.0 xyz
      dof rx ry rz
   end
   begin
      id 11
      name LeftToeBase
      direction 0.000000 0.000000 1.000000
      length 2.952750
      axis 0.0 0.0 0.0 xyz
      dof rx ry rz
   end
   begin
      id 12
      name Spine
      direction 0.000000 1.000000 0.000000
      length 0.000000
      axis 0.0 0.0 0.0 xyz
      dof rx ry rz
   end
   begin
      id 13
      name Spine_dum1
      direction 0.000000 1.000000 0.000000
      length 10.941760
      axis 0.0 0.0 0.0 xyz
   end
   begin
      id 14
      name Spine_dum2
      direction 0.000000 1.000000 0.000000
      length 10.941760
      axis 0.0 0.0 0.0 xyz
   end
   begin
      id 15
      name Spine_dum3
      direction 0.000000 1.000000 0.000000
      length 16.646042
      axis 0.0 0.0 0.0 xyz
   end
   begin
      id 16
      name RightShoulder
      direction -1.000000 0.000000 0.000000
      length 7.708937
      axis 0.0 0.0 90.0 xyz
      dof rx ry rz
   end
   begin
      id 17
      name RightArm
      direction -1.000000 0.000000 0.000000
      length 11.521345
      axis 0.0 0.0 90.0 xyz
      dof rx ry rz
   end
   begin
      id 18
      name RightForeArm
      direction -1.000000 0.000000 0.000000
      length 10.175898
      axis 0.0 0.0 90.0 xyz
      dof ry rz rx
   end
   begin
      id 19
      name RightHand
      direction -1.000000 0.000000 0.000000
      length 0.000000
      axis 0.0 0.0 90.0 xyz
      dof rx ry rz
   end
   begin
      id 20
      name RightHand_dum1
      direction -1.000000 0.000000 0.000000
      length 3.937000
      axis 0.0 0.0 90.0 xyz
   end
   begin
      id 21
      name RightHand_dum2
      direction 0.000000 0.000000 0.000000
      length 0.000000
      axis 0.0 0.0 90.0 xyz
   end
   begin
      id 22
      name RightHandThumb1
      direction 0.000000 0.000000 1.000000
      length 3.937000
      axis 0.0 0.0 90.0 xyz
      dof rx rz ry
   end
   begin
      id 23
      name LeftShoulder
      direction 1.000000 0.000000 0.000000
      length 7.708937
      axis 0.0 0.0 -90.0 xyz
      dof rx ry rz
   end
   begin
      id 24
      name LeftArm
      direction 1.000000 0.000000 0.000000
      length 11.521345
      axis 0.0 0.0 -90.0 xyz
      dof rx ry rz
   end
   begin
      id 25
      name LeftForeArm
      direction 1.000000 0.000000 0.000000
      length 10.175898
      axis 0.0 0.0 -90.0 xyz
      dof ry rz rx
   end
   begin
      id 26
      name LeftHand
      direction 1.000000 0.000000 0.000000
      length 0.000000
      axis 0.0 0.0 -90.0 xyz
      dof rx ry rz
   end
   begin
      id 27
      name LeftHand_dum1
      direction 1.000000 0.000000 0.000000
      length 3.937000
      axis 0.0 0.0 -90.0 xyz
   end
   begin
      id 28
      name LeftHand_dum2
      direction 0.000000 0.000000 0.000000
      length 0.000000
      axis 0.0 0.0 -90.0 xyz
   end
   begin
      id 29
      name LeftHandThumb1
      direction 0.000000 0.000000 1.000000
      length 3.937000
      axis 0.0 0.0 -90.0 xyz
      dof rx rz ry
   end
   begin
      id 30
      name Head
      direction 0.000000 1.000000 0.000000
      length 4.527550
      axis 0.0 0.0 0.0 xyz
      dof rx ry rz
   end
:hierarchy
   begin
      root RightUpLeg_dum LeftUpLeg_dum Spine_dum
      RightUpLeg_dum RightUpLeg
      LeftUpLeg_dum LeftUpLeg
      Spine_dum Spine
      RightUpLeg RightLeg
      RightLeg RightFoot
      RightFoot RightToeBase
      LeftUpLeg LeftLeg
      LeftLeg LeftFoot
      LeftFoot LeftToeBase
      Spine Spine_dum1 Spine_dum2 Spine_dum3
      Spine_dum1 RightShoulder
      Spine_dum2 LeftShoulder
      Spine_dum3 Head
      RightShoulder RightArm
      RightArm RightForeArm
      RightForeArm RightHand
      RightHand RightHand_dum1 RightHand_dum2
      RightHand_dum2 RightHandThumb1
      LeftShoulder LeftArm
      LeftArm LeftForeArm
      LeftForeArm LeftHand
      LeftHand LeftHand_dum1 LeftHand_dum2
      LeftHand_dum2 LeftHandThumb1
   end

# File created by Blade
# Date/Time:  Thu Jan 22 16:16:06 2015
# Frame Rate: 120.000 fps
#------------------------------------------------------
:FULLY-SPECIFIED
:DEGREES
215
root -0.149280 35.375798 0.083016 1.920921 -2.295519 5.833385
RightUpLeg 5.403557 -10.676990 -25.651619
RightLeg -6.220599 -0.000000 0.000000
RightFoot -6.183338 -19.024856 31.081528
RightToeBase 13.396479 -0.000000 -0.000000
LeftUpLeg -2.950228 2.304029 16.838465
LeftLeg 8.808437 -0.000000 -0.000000
LeftFoot -0.758599 6.304432 -34.382686
LeftToeBase 2.299443 -0.000000 -0.000000
Spine 11.096448 -3.819068 -3.987031
RightShoulder -4.526399 -11.847978 -26.061061
RightArm 10.529997 26.432751 41.783328
RightForeArm 5.439138 0.000000 21.514487
RightHand 4.357642 0.000000 -7.087726
RightHandThumb1 -24.326973 -0.000000 -32.862282
LeftShoulder -26.217783 31.002116 8.388254
LeftArm 53.016154 -48.670390 -73.263311
LeftForeArm 43.963124 -0.000000 8.518852
LeftHand -21.935466 -0.000000 1.250115
LeftHandThumb1 -26.253704 0.000000 33.147579
Head -8.844799 13.689701 -6.175059
216
root -0.151566 35.384961 0.057682 2.038143 -2.359660 5.873900
RightUpLeg 5.172187 -10.452298 -25.654198
RightLeg -6.118934 -0.000000 0.000000
RightFoot -6.295401 -19.154203 31.226058
RightToeBase 13.409939 -0.000000 -0.000000
LeftUpLeg -3.010343 1.900850 16.978005
LeftLeg 9.033227 -0.000000 -0.000000
LeftFoot -0.848907 5.323561 -34.153957
LeftToeBase 1.395327 -0.000000 -0.000000
Spine 10.928708 -3.865882 -3.721693
RightShoulder -4.436969 -11.594655 -26.112735
RightArm 10.446626 26.504209 41.589981
RightForeArm 5.276960 0.000000 21.667512
RightHand 4.361982 -0.000000 -7.188038
RightHandThumb1 -24.326973 -0.000000 -32.862282
LeftShoulder -26.086121 31.050573 8.602776
LeftArm 53.012584 -48.803001 -73.778552
LeftForeArm 43.409448 -0.000000 8.623442
LeftHand -22.224829 -0.000000 1.462337
LeftHandThumb1 -26.253704 0.000000 33.147579
Head -8.666263 13.725985 -5.659502
217
root -0.147923 35.388509 0.035453 2.126800 -2.442778 5.870508
RightUpLeg 4.962652 -10.252776 -25.633643
RightLeg -6.012495 -0.000000 0.000000
RightFoot -6.382111 -19.217025 31.350501
RightToeBase 13.431426 -0.000000 -0.000000
LeftUpLeg -3.019782 1.535092 17.133810
LeftLeg 9.255969 -0.000000 -0.000000
LeftFoot -1.182507 4.832923 -33.919115
LeftToeBase 0.411280 -0.000000 -0.000000
Spine 10.802106 -3.891223 -3.431431
RightShoulder -4.387983 -11.399743 -26.127091
RightArm 10.410003 26.525081 41.369170
RightForeArm 5.276918 -0.000000 21.789093
RightHand 4.426585 -0.000000 -7.273494
RightHandThumb1 -24.326973 -0.000000 -32.862282
LeftShoulder -25.939627 31.047809 8.877424
LeftArm 53.058137 -49.019295 -74.450983
LeftForeArm 43.075597 -0.000000 8.755413
LeftHand -22.122947 -0.000000 1.526277
LeftHandThumb1 -26.253704 0.000000 33.147579
Head -8.511150 13.796348 -5.087855
218
root -0.144380 35.386875 0.016450 2.155442 -2.560404 5.786754
RightUpLeg 4.792799 -10.054375 -25.540683
RightLeg -5.900877 -0.000000 0.000000
RightFoot -6.431819 -19.238078 31.437231
RightToeBase 13.432109 -0.000000 -0.000000
LeftUpLeg -2.939918 1.374802 17.343286
LeftLeg 9.457351 -0.000000 -0.000000
LeftFoot -1.699742 4.824976 -33.619227
LeftToeBase -0.210264 -0.000000 0.000000
Spine 10.770733 -3.878087 -3.073558
RightShoulder -4.349225 -11.210902 -26.169667
RightArm 10.374235 26.697014 41.243874
RightForeArm 5.144373 0.000000 22.001072
RightHand 4.300198 -0.000000 -7.403200
RightHandThumb1 -24.326973 -0.000000 -32.862282
LeftShoulder -25.831996 31.088080 9.094328
LeftArm 52.997284 -49.116673 -74.872351
LeftForeArm 42.348846 -0.000000 8.848425
LeftHand -22.164154 -0.000000 2.008189
LeftHandThumb1 -26.253704 0.000000 33.147579
Head -8.434428 13.902944 -4.575517
